<svg width="162" height="197" viewBox="0 0 162 197" fill="none" xmlns="http://www.w3.org/2000/svg">
<rect width="162" height="197" fill="black"/>
<path d="M26.506 87.434C26.506 90.138 25.531 92.075 23.581 93.245C21.631 94.415 18.94 95 15.508 95H3.808V67.7H14.806C16.756 67.7 18.485 67.96 19.993 68.48C21.527 69 22.736 69.78 23.62 70.82C24.504 71.834 24.946 73.121 24.946 74.681C24.946 76.007 24.595 77.151 23.893 78.113C23.217 79.075 22.281 79.842 21.085 80.414C22.619 80.986 23.906 81.844 24.946 82.988C25.986 84.132 26.506 85.614 26.506 87.434ZM13.831 73.472H11.374V78.464H13.831C15.989 78.464 17.068 77.606 17.068 75.89C17.068 74.278 15.989 73.472 13.831 73.472ZM11.374 89.228H14.533C15.677 89.228 16.639 89.033 17.419 88.643C18.225 88.253 18.628 87.46 18.628 86.264C18.628 85.198 18.225 84.496 17.419 84.158C16.639 83.794 15.677 83.612 14.533 83.612H11.374V89.228ZM48.644 95L46.343 90.632H38.309L36.086 95H27.467L42.365 65.867L57.224 95H48.644ZM42.365 78.932L39.674 85.016H45.017L42.365 78.932ZM54.4364 74.486V67.7H77.3294V74.486H69.6854V95H62.0804V74.486H54.4364ZM86.9563 81.35C86.9563 82.884 87.2943 84.184 87.9703 85.25C88.6723 86.316 89.5953 87.135 90.7393 87.707C91.8833 88.253 93.1443 88.526 94.5223 88.526C96.4463 88.526 98.0323 88.162 99.2803 87.434C100.528 86.706 101.594 85.9 102.478 85.016V93.05C101.386 93.83 100.19 94.467 98.8903 94.961C97.6163 95.455 95.9783 95.702 93.9763 95.702C90.9343 95.702 88.2563 95.104 85.9423 93.908C83.6543 92.712 81.8603 91.048 80.5603 88.916C79.2603 86.758 78.6103 84.236 78.6103 81.35C78.6103 78.464 79.2603 75.955 80.5603 73.823C81.8603 71.665 83.6543 69.988 85.9423 68.792C88.2563 67.596 90.9343 66.998 93.9763 66.998C95.9783 66.998 97.6163 67.245 98.8903 67.739C100.19 68.233 101.386 68.87 102.478 69.65V77.684C101.594 76.774 100.528 75.968 99.2803 75.266C98.0323 74.538 96.4463 74.174 94.5223 74.174C93.1443 74.174 91.8833 74.46 90.7393 75.032C89.5953 75.578 88.6723 76.384 87.9703 77.45C87.2943 78.516 86.9563 79.816 86.9563 81.35ZM107.668 67.7H115.234V77.372H125.998V67.7H133.564V95H125.998V84.119H115.234V95H107.668V67.7Z" fill="#E33700"/>
<path d="M4.888 52.6H10.468V54.268H6.844V55.768H10.228V57.412H6.844V59.332H10.468V61H4.888V52.6ZM16.4385 52.6H18.5385V55.912L21.3945 52.6H23.7825L20.3745 56.536L23.9625 61H21.5025L18.5385 57.328V61H16.4385V52.6ZM32.1608 61H29.1608V52.6H32.1608C33.0808 52.6 33.8768 52.772 34.5488 53.116C35.2208 53.452 35.7408 53.936 36.1088 54.568C36.4768 55.192 36.6608 55.936 36.6608 56.8C36.6608 57.664 36.4768 58.412 36.1088 59.044C35.7408 59.668 35.2208 60.152 34.5488 60.496C33.8768 60.832 33.0808 61 32.1608 61ZM32.0888 54.412H31.2608V59.188H32.0888C32.5208 59.188 32.9248 59.116 33.3008 58.972C33.6768 58.82 33.9808 58.572 34.2128 58.228C34.4448 57.876 34.5608 57.4 34.5608 56.8C34.5608 56.2 34.4448 55.728 34.2128 55.384C33.9808 55.032 33.6768 54.784 33.3008 54.64C32.9248 54.488 32.5208 54.412 32.0888 54.412ZM42.2816 52.6H44.3096V55.66H47.9216V52.6H49.9496V61H47.9216V57.484H44.3096V61H42.2816V52.6ZM56.9592 58.048C57.2152 58.504 57.5152 58.868 57.8592 59.14C58.2112 59.404 58.5992 59.536 59.0232 59.536C59.3272 59.536 59.5712 59.464 59.7552 59.32C59.9472 59.168 60.0432 58.964 60.0432 58.708C60.0432 58.5 59.9872 58.328 59.8752 58.192C59.7632 58.056 59.5832 57.928 59.3352 57.808C59.0952 57.688 58.7712 57.552 58.3632 57.4C58.1552 57.32 57.9232 57.216 57.6672 57.088C57.4112 56.96 57.1632 56.796 56.9232 56.596C56.6912 56.396 56.4992 56.152 56.3472 55.864C56.1952 55.568 56.1192 55.216 56.1192 54.808C56.1192 54.304 56.2472 53.876 56.5032 53.524C56.7672 53.164 57.1192 52.888 57.5592 52.696C58.0072 52.504 58.5032 52.408 59.0472 52.408C59.6152 52.408 60.1032 52.5 60.5112 52.684C60.9192 52.868 61.2592 53.1 61.5312 53.38C61.8032 53.66 62.0112 53.944 62.1552 54.232L60.6072 55.096C60.4232 54.792 60.2032 54.552 59.9472 54.376C59.6912 54.192 59.3992 54.1 59.0712 54.1C58.7832 54.1 58.5632 54.164 58.4112 54.292C58.2672 54.412 58.1952 54.564 58.1952 54.748C58.1952 55.036 58.3552 55.272 58.6752 55.456C59.0032 55.632 59.4592 55.824 60.0432 56.032C60.4352 56.168 60.7912 56.352 61.1112 56.584C61.4392 56.808 61.6992 57.088 61.8912 57.424C62.0912 57.752 62.1912 58.148 62.1912 58.612C62.1912 59.18 62.0432 59.664 61.7472 60.064C61.4512 60.456 61.0632 60.756 60.5832 60.964C60.1112 61.164 59.6112 61.264 59.0832 61.264C58.5392 61.264 58.0312 61.168 57.5592 60.976C57.0952 60.776 56.6872 60.512 56.3352 60.184C55.9912 59.848 55.7272 59.476 55.5432 59.068L56.9592 58.048Z" fill="#828282"/>
<path d="M57.78 131L69.714 118.754C70.858 117.506 71.768 116.44 72.444 115.556C73.12 114.646 73.458 113.658 73.458 112.592C73.458 111.812 73.198 111.11 72.678 110.486C72.158 109.862 71.326 109.55 70.182 109.55C69.064 109.55 68.154 109.966 67.452 110.798C66.776 111.63 66.438 112.696 66.438 113.996H59.028C59.028 112.046 59.444 110.252 60.276 108.614C61.134 106.95 62.408 105.624 64.098 104.636C65.788 103.622 67.894 103.115 70.416 103.115C72.756 103.115 74.732 103.557 76.344 104.441C77.956 105.325 79.178 106.456 80.01 107.834C80.868 109.186 81.297 110.59 81.297 112.046C81.297 113.528 80.933 114.867 80.205 116.063C79.477 117.259 78.502 118.351 77.28 119.339L71.664 124.058H82.116V131H57.78ZM85.144 117.35C85.144 114.308 85.638 111.734 86.626 109.628C87.614 107.496 88.979 105.884 90.721 104.792C92.489 103.7 94.53 103.154 96.844 103.154C100.484 103.154 103.344 104.376 105.424 106.82C107.53 109.264 108.583 112.774 108.583 117.35C108.583 121.9 107.53 125.41 105.424 127.88C103.344 130.324 100.484 131.546 96.844 131.546C94.53 131.546 92.489 131 90.721 129.908C88.979 128.79 87.614 127.178 86.626 125.072C85.638 122.966 85.144 120.392 85.144 117.35ZM92.398 117.35C92.398 119.716 92.801 121.601 93.607 123.005C94.439 124.409 95.518 125.111 96.844 125.111C98.17 125.111 99.236 124.409 100.042 123.005C100.874 121.601 101.29 119.716 101.29 117.35C101.29 114.958 100.874 113.073 100.042 111.695C99.236 110.291 98.17 109.589 96.844 109.589C95.518 109.589 94.439 110.291 93.607 111.695C92.801 113.073 92.398 114.958 92.398 117.35ZM110.91 131L122.844 118.754C123.988 117.506 124.898 116.44 125.574 115.556C126.25 114.646 126.588 113.658 126.588 112.592C126.588 111.812 126.328 111.11 125.808 110.486C125.288 109.862 124.456 109.55 123.312 109.55C122.194 109.55 121.284 109.966 120.582 110.798C119.906 111.63 119.568 112.696 119.568 113.996H112.158C112.158 112.046 112.574 110.252 113.406 108.614C114.264 106.95 115.538 105.624 117.228 104.636C118.918 103.622 121.024 103.115 123.546 103.115C125.886 103.115 127.862 103.557 129.474 104.441C131.086 105.325 132.308 106.456 133.14 107.834C133.998 109.186 134.427 110.59 134.427 112.046C134.427 113.528 134.063 114.867 133.335 116.063C132.607 117.259 131.632 118.351 130.41 119.339L124.794 124.058H135.246V131H110.91ZM139.21 112.358V105.884L153.484 103.154V131H146.191V110.72L139.21 112.358Z" fill="#F9F9F9"/>
<path d="M133.702 161.821C133.792 162.043 133.933 162.238 134.125 162.406C134.317 162.574 134.575 162.658 134.899 162.658C135.151 162.658 135.352 162.595 135.502 162.469C135.658 162.343 135.736 162.163 135.736 161.929C135.736 161.761 135.688 161.623 135.592 161.515C135.496 161.401 135.37 161.308 135.214 161.236C135.058 161.158 134.89 161.089 134.71 161.029C134.512 160.963 134.323 160.885 134.143 160.795C133.963 160.699 133.816 160.576 133.702 160.426C133.588 160.27 133.531 160.069 133.531 159.823C133.531 159.589 133.588 159.397 133.702 159.247C133.822 159.091 133.978 158.974 134.17 158.896C134.362 158.818 134.563 158.779 134.773 158.779C135.127 158.779 135.424 158.863 135.664 159.031C135.904 159.199 136.078 159.397 136.186 159.625L135.799 159.859C135.703 159.679 135.568 159.523 135.394 159.391C135.22 159.259 134.995 159.193 134.719 159.193C134.521 159.193 134.35 159.244 134.206 159.346C134.062 159.442 133.99 159.592 133.99 159.796C133.99 159.958 134.035 160.093 134.125 160.201C134.215 160.303 134.335 160.387 134.485 160.453C134.635 160.519 134.794 160.582 134.962 160.642C135.184 160.72 135.388 160.81 135.574 160.912C135.766 161.014 135.919 161.143 136.033 161.299C136.153 161.449 136.213 161.641 136.213 161.875C136.213 162.235 136.087 162.529 135.835 162.757C135.589 162.979 135.268 163.09 134.872 163.09C134.584 163.09 134.332 163.039 134.116 162.937C133.906 162.835 133.735 162.703 133.603 162.541C133.471 162.379 133.378 162.211 133.324 162.037L133.702 161.821ZM137.431 159.616L137.197 159.265C137.353 159.151 137.557 159.04 137.809 158.932C138.061 158.824 138.367 158.77 138.727 158.77C139.195 158.77 139.561 158.884 139.825 159.112C140.089 159.334 140.221 159.652 140.221 160.066V163H139.753V162.226C139.633 162.52 139.435 162.739 139.159 162.883C138.889 163.021 138.613 163.09 138.331 163.09C138.097 163.09 137.872 163.042 137.656 162.946C137.446 162.844 137.272 162.697 137.134 162.505C137.002 162.307 136.936 162.064 136.936 161.776C136.936 161.368 137.074 161.05 137.35 160.822C137.632 160.588 138.013 160.471 138.493 160.471C138.793 160.471 139.048 160.51 139.258 160.588C139.468 160.666 139.633 160.744 139.753 160.822V160.129C139.753 159.967 139.72 159.814 139.654 159.67C139.588 159.526 139.477 159.409 139.321 159.319C139.171 159.229 138.961 159.184 138.691 159.184C138.379 159.184 138.118 159.235 137.908 159.337C137.704 159.439 137.545 159.532 137.431 159.616ZM137.413 161.758C137.413 162.07 137.515 162.304 137.719 162.46C137.929 162.61 138.175 162.685 138.457 162.685C138.691 162.685 138.904 162.631 139.096 162.523C139.294 162.415 139.453 162.256 139.573 162.046C139.693 161.836 139.753 161.578 139.753 161.272V161.146C139.573 161.044 139.384 160.969 139.186 160.921C138.988 160.873 138.781 160.849 138.565 160.849C138.217 160.849 137.938 160.924 137.728 161.074C137.518 161.224 137.413 161.452 137.413 161.758ZM144.613 158.86L141.913 164.98H141.391L142.453 162.577L140.779 158.86H141.337L142.723 162.127L144.091 158.86H144.613ZM146.782 163.09C146.41 163.09 146.08 162.997 145.792 162.811C145.504 162.625 145.276 162.37 145.108 162.046C144.946 161.716 144.865 161.341 144.865 160.921C144.865 160.501 144.949 160.129 145.117 159.805C145.285 159.481 145.519 159.229 145.819 159.049C146.119 158.863 146.464 158.77 146.854 158.77C147.232 158.77 147.562 158.857 147.844 159.031C148.132 159.205 148.354 159.445 148.51 159.751C148.672 160.057 148.753 160.414 148.753 160.822C148.753 160.912 148.747 160.987 148.735 161.047H145.342C145.366 161.533 145.513 161.923 145.783 162.217C146.059 162.505 146.41 162.649 146.836 162.649C147.154 162.649 147.43 162.58 147.664 162.442C147.904 162.304 148.117 162.088 148.303 161.794L148.681 162.037C148.225 162.739 147.592 163.09 146.782 163.09ZM146.854 159.184C146.44 159.184 146.098 159.316 145.828 159.58C145.564 159.844 145.408 160.198 145.36 160.642H148.249C148.243 160.36 148.18 160.111 148.06 159.895C147.94 159.673 147.775 159.499 147.565 159.373C147.355 159.247 147.118 159.184 146.854 159.184ZM149.444 160.93C149.444 160.486 149.534 160.102 149.714 159.778C149.894 159.454 150.134 159.205 150.434 159.031C150.74 158.857 151.076 158.77 151.442 158.77C151.796 158.77 152.105 158.866 152.369 159.058C152.633 159.25 152.837 159.508 152.981 159.832V155.98H153.449V163H152.981V162.028C152.837 162.352 152.633 162.61 152.369 162.802C152.105 162.994 151.796 163.09 151.442 163.09C151.076 163.09 150.74 163.003 150.434 162.829C150.134 162.655 149.894 162.406 149.714 162.082C149.534 161.758 149.444 161.374 149.444 160.93ZM149.921 160.93C149.921 161.29 149.993 161.599 150.137 161.857C150.281 162.109 150.473 162.304 150.713 162.442C150.953 162.58 151.217 162.649 151.505 162.649C151.763 162.649 152.003 162.574 152.225 162.424C152.453 162.274 152.636 162.07 152.774 161.812C152.912 161.554 152.981 161.26 152.981 160.93C152.981 160.6 152.912 160.306 152.774 160.048C152.636 159.79 152.453 159.586 152.225 159.436C152.003 159.286 151.763 159.211 151.505 159.211C151.217 159.211 150.953 159.28 150.713 159.418C150.473 159.55 150.281 159.745 150.137 160.003C149.993 160.261 149.921 160.57 149.921 160.93ZM155.056 162.784C155.056 162.688 155.089 162.607 155.155 162.541C155.221 162.475 155.299 162.442 155.389 162.442C155.479 162.442 155.557 162.475 155.623 162.541C155.689 162.607 155.722 162.688 155.722 162.784C155.722 162.88 155.689 162.958 155.623 163.018C155.557 163.084 155.479 163.117 155.389 163.117C155.299 163.117 155.221 163.084 155.155 163.018C155.089 162.958 155.056 162.88 155.056 162.784ZM157.614 162.784C157.614 162.688 157.647 162.607 157.713 162.541C157.779 162.475 157.857 162.442 157.947 162.442C158.037 162.442 158.115 162.475 158.181 162.541C158.247 162.607 158.28 162.688 158.28 162.784C158.28 162.88 158.247 162.958 158.181 163.018C158.115 163.084 158.037 163.117 157.947 163.117C157.857 163.117 157.779 163.084 157.713 163.018C157.647 162.958 157.614 162.88 157.614 162.784ZM160.172 162.784C160.172 162.688 160.205 162.607 160.271 162.541C160.337 162.475 160.415 162.442 160.505 162.442C160.595 162.442 160.673 162.475 160.739 162.541C160.805 162.607 160.838 162.688 160.838 162.784C160.838 162.88 160.805 162.958 160.739 163.018C160.673 163.084 160.595 163.117 160.505 163.117C160.415 163.117 160.337 163.084 160.271 163.018C160.205 162.958 160.172 162.88 160.172 162.784Z" fill="#606060"/>
</svg>

